<?xml version="1.0" encoding="UTF-8" standalone="no"?>
<svg width="336px" height="225px" viewBox="0 0 336 225" version="1.1" xmlns="http://www.w3.org/2000/svg" xmlns:xlink="http://www.w3.org/1999/xlink" xmlns:sketch="http://www.bohemiancoding.com/sketch/ns">
    <!-- Generator: Sketch 3.3.1 (12002) - http://www.bohemiancoding.com/sketch -->
    <title>Imported Layers + Вы не угадали</title>
    <desc>Created with Sketch.</desc>
    <defs></defs>
    <g id="Page-1" stroke="none" stroke-width="1" fill="none" fill-rule="evenodd" sketch:type="MSPage">
        <g id="true" sketch:type="MSArtboardGroup" transform="translate(-443.000000, -183.000000)">
            <g id="Imported-Layers-+-Вы-не-угадали" sketch:type="MSLayerGroup" transform="translate(444.000000, 183.000000)">
                <path d="M323.5,141.823 L324.11,127.092 L321.174,93.685 L314.125,86.319 L323.297,86.173 L324.309,82.111 L318.612,77.755 L325.101,58.82 L306.711,38.778 L306.711,194.023 L167.039,147.032 L27.128,194.023 L27.128,34.205 L6.647,47.008 L7.455,73.671 L5.032,76.509 C5.032,76.509 6.74,83.943 8.356,94.681 C9.971,105.419 8.561,96.202 8.561,96.202 L15.008,127.373 L6.74,139.425 L6.67,148.486 L6.74,153.812 L8.356,162.101 L4.721,165.952 C4.721,165.952 11.992,188.429 12.196,195.724 C12.401,203.017 8.35,222.776 14.217,222.776 C20.076,222.776 63.481,195.307 63.481,195.307 L67.319,196.114 L103.082,189.934 L106.5,177.958 L114.615,181.815 L162.319,155.898 L165.651,160.268 C165.651,160.268 204.96,171.896 209.405,178.629 C213.854,185.364 219.955,188.808 219.955,188.808 L248.287,194.536 C248.287,194.536 265.808,184.763 271.467,198.132 C277.123,211.502 299.83,214.29 305.084,219.153 C310.332,224.013 313.768,224.421 317.004,224.421 C320.237,224.421 320.024,225.8 320.018,205.543 C320.012,185.283 322.295,147.189 322.295,147.189 L325.503,143.398 L323.5,141.823 L323.5,141.823 Z M27.128,34.205 L4.373,34.205 C1.42,34.205 0,35.453 0,36.977 C0,38.504 1.42,39.75 4.373,39.75 L18.258,39.75 L27.128,34.205 L27.128,34.205 Z M329.468,34.205 L306.713,34.205 L306.713,39.75 L329.468,39.75 C332.418,39.75 333.838,38.504 333.838,36.977 C333.838,35.453 332.418,34.205 329.468,34.205 L329.468,34.205 Z M30.18,20.932 C30.18,24.566 27.239,27.516 23.615,27.516 C19.987,27.516 17.045,24.566 17.045,20.932 C17.045,17.299 19.987,14.35 23.615,14.35 C27.239,14.35 30.18,17.299 30.18,20.932 L30.18,20.932 Z M313.279,20.932 C313.279,24.566 310.338,27.516 306.715,27.516 C303.088,27.516 300.149,24.566 300.149,20.932 C300.149,17.299 303.088,14.35 306.715,14.35 C310.338,14.35 313.279,17.299 313.279,20.932 L313.279,20.932 Z M23.613,20.932 L23.613,0 L23.613,20.932 Z M306.713,20.932 L306.713,0 L306.713,20.932 Z M27.128,115.015 L15.008,127.373 L27.128,115.015 Z M8.356,162.101 L15.926,158.888 L8.356,162.101 Z M6.74,139.425 L13.606,138.623 L6.74,139.425 Z M7.455,73.671 L27.128,61.092 L7.455,73.671 Z M322.295,147.189 L309.569,141.044 L322.295,147.189 Z M323.5,141.823 L318.967,139.36 L323.5,141.823 Z M248.287,194.536 L248.903,186.516 L248.287,194.536 Z M67.319,196.114 L67.319,180.502 L67.319,196.114 Z M63.481,195.307 C63.529,194.632 64.1,185.519 64.1,185.519 L63.481,195.307 Z M4.721,165.952 L27.128,158.888 L4.721,165.952 Z M9.048,180.502 L22.143,174.44 L9.048,180.502 Z M12.199,196.114 L19.206,194.161 L12.199,196.114 Z M321.481,162.101 L312.416,158.177 L321.481,162.101 Z M320.088,198.627 L310.707,190.413 L320.088,198.627 Z M324.11,127.092 L311.164,121.638 L324.11,127.092 Z M318.612,77.755 L313.279,73.695 L318.612,77.755 Z M320.022,211.438 L310.707,200.044 L320.022,211.438 Z M298.459,34.205 L298.459,182.54 L167.039,138.324 L35.381,182.54 L35.381,34.205 L298.459,34.205 Z M27.128,34.205 L35.715,34.205 L27.128,34.205 Z M298.128,34.205 L306.715,34.205 L298.128,34.205 Z" id="Imported-Layers" stroke="#000000" stroke-linecap="round" stroke-linejoin="bevel" sketch:type="MSShapeGroup"></path>
                <path d="M82.588,80.4 L82.588,81.128 L84.52,81.268 C85.304,81.324 85.332,81.856 85.332,82.136 L85.332,98.264 C85.332,98.46 85.332,99.076 84.52,99.132 L82.588,99.272 L82.588,100 C83.624,99.944 84.94,99.86 86.536,99.86 C89.98,99.86 87.964,100 91.24,100 C93.256,100 95.048,99.468 96.168,98.432 C97.54,97.172 97.736,95.492 97.736,94.428 C97.736,93 97.372,91.712 96,90.844 C95.188,90.34 93.928,90.06 93.004,90.004 L93.004,89.696 C93.536,89.5 94.852,88.968 95.636,88.184 C96.7,87.12 96.896,85.804 96.896,84.852 C96.896,83.872 96.672,82.416 95.328,81.352 C94.124,80.4 92.444,80.316 91.38,80.316 C89.252,80.316 89.112,80.54 86.536,80.54 C85.248,80.54 83.596,80.456 82.588,80.4 L82.588,80.4 Z M87.74,90.284 C88.524,90.228 89.252,90.172 89.896,90.172 C91.576,90.172 92.724,90.424 93.564,91.04 C95.048,92.132 95.104,93.896 95.104,94.568 C95.104,95.772 94.824,97.088 94.18,97.9 C93.256,99.104 91.856,99.216 90.68,99.216 C89.504,99.216 88.692,99.048 87.74,98.628 L87.74,90.284 Z M87.74,81.352 C88.748,81.128 89.644,81.044 90.596,81.044 C91.604,81.044 92.724,81.156 93.564,82.164 C94.32,83.088 94.32,84.208 94.32,85.104 C94.32,86 94.236,87.204 93.592,88.1 C92.724,89.276 91.24,89.528 89.644,89.528 C89.028,89.528 88.384,89.472 87.74,89.444 L87.74,81.352 Z M104.064,89.052 C104.064,88.688 104.008,88.324 104.792,88.268 L105.968,88.184 L105.968,87.568 C104.96,87.652 103.98,87.68 102.972,87.68 C101.964,87.68 100.956,87.652 99.976,87.568 L99.976,88.184 L101.152,88.268 C101.88,88.324 101.936,88.66 101.936,89.052 L101.936,98.516 C101.936,98.908 101.88,99.244 101.152,99.3 L99.976,99.384 L99.976,100 C100.928,99.916 101.656,99.888 102.3,99.888 C103.84,99.888 104.82,100.056 106.948,100.056 C107.984,100.056 109.384,99.972 110.364,98.796 C110.924,98.124 111.344,96.892 111.344,95.94 C111.344,94.624 110.476,93.532 109.216,92.972 C108.516,92.664 107.564,92.524 106.64,92.524 C105.856,92.524 105.324,92.636 104.064,92.944 L104.064,89.052 Z M104.064,93.7 C104.764,93.308 105.576,93.14 106.22,93.14 C106.948,93.14 107.76,93.392 108.292,93.868 C109.048,94.568 109.104,95.492 109.104,96.108 C109.104,96.752 109.02,97.48 108.684,98.096 C108.18,99.048 107.284,99.384 105.856,99.384 C105.044,99.384 104.708,99.272 104.512,99.188 C104.064,98.964 104.064,98.74 104.064,98.404 L104.064,93.7 Z M114.032,98.516 C114.032,98.908 113.976,99.244 113.248,99.3 L112.072,99.384 L112.072,100 C113.052,99.944 114.06,99.888 115.068,99.888 C116.076,99.888 117.056,99.944 118.064,100 L118.064,99.384 L116.888,99.3 C116.16,99.244 116.104,98.908 116.104,98.516 L116.104,89.052 C116.104,88.66 116.16,88.324 116.888,88.268 L118.064,88.184 L118.064,87.568 C117.056,87.652 116.076,87.68 115.068,87.68 C114.06,87.68 113.052,87.652 112.072,87.568 L112.072,88.184 L113.248,88.268 C113.976,88.324 114.032,88.66 114.032,89.052 L114.032,98.516 Z M132.26,87.568 C131.252,87.652 130.272,87.68 129.264,87.68 C128.256,87.68 127.248,87.652 126.268,87.568 L126.268,88.184 L127.444,88.268 C128.172,88.324 128.228,88.66 128.228,89.052 L128.228,98.516 C128.228,98.908 128.172,99.244 127.444,99.3 L126.268,99.384 L126.268,100 C127.248,99.944 128.256,99.888 129.264,99.888 C130.272,99.888 131.252,99.944 132.26,100 L132.26,99.384 L131.084,99.3 C130.356,99.244 130.3,98.908 130.3,98.516 L130.3,93.644 L137.3,93.644 L137.3,98.516 C137.3,98.908 137.244,99.244 136.516,99.3 L135.34,99.384 L135.34,100 C136.32,99.944 137.328,99.888 138.336,99.888 C139.344,99.888 140.324,99.944 141.332,100 L141.332,99.384 L140.156,99.3 C139.428,99.244 139.372,98.908 139.372,98.516 L139.372,89.052 C139.372,88.66 139.428,88.324 140.156,88.268 L141.332,88.184 L141.332,87.568 C140.324,87.652 139.344,87.68 138.336,87.68 C137.328,87.68 136.32,87.652 135.34,87.568 L135.34,88.184 L136.516,88.268 C137.244,88.324 137.3,88.66 137.3,89.052 L137.3,93.028 L130.3,93.028 L130.3,89.052 C130.3,88.66 130.356,88.324 131.084,88.268 L132.26,88.184 L132.26,87.568 Z M154.436,96.36 L153.904,96.052 C152.7,99.384 150.992,99.608 149.844,99.608 C148.78,99.608 145.588,99.552 145.588,94.456 C145.588,93.56 145.672,92.692 145.728,92.076 L154.1,92.076 L154.296,91.852 C154.38,89.416 152.532,87.288 149.368,87.288 C144.944,87.288 143.292,90.704 143.292,93.84 C143.292,97.144 145.448,100.28 149.508,100.28 C151.076,100.28 153.12,99.916 154.436,96.36 L154.436,96.36 Z M145.812,91.46 C145.868,90.62 146.176,89.724 146.764,89.024 C147.604,88.044 148.5,87.904 149.228,87.904 C149.732,87.904 150.656,87.988 151.384,88.716 C152.196,89.528 152.28,90.732 152.224,91.46 L145.812,91.46 Z M169.92,97.816 L166.028,88.996 C166,88.912 165.944,88.8 165.944,88.688 C165.944,88.324 166.224,88.268 166.644,88.24 L167.652,88.184 L167.652,87.568 C166.224,87.624 165.608,87.708 164.796,87.708 C164.04,87.708 163.284,87.624 162.08,87.568 L162.08,88.184 L162.752,88.24 C163.424,88.296 163.592,88.772 163.704,89.024 L168.996,100.672 C168.268,102.156 166.728,105.124 165.412,105.124 C165.188,105.124 164.936,105.04 164.6,104.956 C164.208,104.844 163.9,104.788 163.592,104.788 C162.584,104.788 162.304,105.432 162.304,105.908 C162.304,106.3 162.584,106.832 163.62,106.832 C165.272,106.832 166.924,106.02 169.108,101.96 C170.032,100.252 171.012,97.76 171.124,97.48 C171.544,96.388 171.992,95.128 172.832,92.888 C173.7,90.564 173.924,89.696 174.176,89.164 C174.484,88.548 174.68,88.24 175.38,88.212 L175.856,88.184 L175.856,87.568 C174.008,87.652 175.184,87.708 173.84,87.708 C173.168,87.708 173.112,87.624 171.6,87.568 L171.6,88.184 L172.58,88.212 C173.504,88.24 173.308,88.912 173.168,89.416 C172.916,90.312 172.188,92.944 170.228,97.816 L169.92,97.816 Z M186.244,92.02 L185.656,87.764 L185.264,87.372 C183.332,87.568 181.484,87.68 179.552,87.68 C178.46,87.68 177.34,87.652 176.136,87.568 L176.136,88.184 L177.312,88.268 C178.04,88.324 178.096,88.66 178.096,89.052 L178.096,98.516 C178.096,98.908 178.04,99.244 177.312,99.3 L176.136,99.384 L176.136,100 C177.2,99.916 178.236,99.888 179.244,99.888 C180.336,99.888 181.4,99.916 182.408,100 L182.408,99.412 L180.952,99.3 C180.224,99.244 180.168,98.908 180.168,98.516 L180.168,88.212 L182.128,88.212 C183.976,88.212 184.172,88.24 184.956,90.116 C185.012,90.256 185.18,90.648 185.712,92.02 L186.244,92.02 Z M195.288,92.076 C195.12,92.132 194.952,92.16 194.784,92.216 C194.14,92.384 193.468,92.524 192.824,92.72 C191.984,92.972 189.66,93.672 188.624,94.512 C187.644,95.324 187.364,96.192 187.364,97.06 C187.364,99.104 188.764,100.28 190.78,100.28 C191.732,100.28 192.432,100.084 193.412,99.44 C193.972,99.076 194.644,98.544 195.092,98.152 L195.288,98.208 C195.288,99.44 196.268,100.28 197.472,100.28 C198.396,100.28 199.068,99.86 199.684,99.02 L199.348,98.656 C199.068,99.048 198.564,99.44 198.116,99.44 C197.752,99.44 197.36,99.272 197.36,98.404 L197.36,90.788 C197.36,89.976 197.192,88.744 195.428,87.876 C194.308,87.316 193.524,87.288 192.628,87.288 C191.788,87.288 190.92,87.316 189.912,87.792 C188.904,88.268 187.924,89.164 187.924,90.06 C187.924,90.592 188.4,90.788 188.764,90.788 C189.1,90.788 189.52,90.704 189.856,90.284 C190.528,89.5 190.136,88.996 190.92,88.38 C191.424,87.988 192.04,87.904 192.6,87.904 C193.188,87.904 193.86,87.96 194.476,88.436 C195.204,88.996 195.288,89.752 195.288,90.732 L195.288,92.076 Z M195.288,97.144 C194.756,97.648 194.112,98.18 193.524,98.544 C192.936,98.908 192.348,99.188 191.62,99.188 C190.696,99.188 190.192,98.796 189.912,98.432 C189.548,97.928 189.492,97.284 189.492,96.92 C189.492,96.08 189.688,95.408 190.248,94.792 C191.004,93.952 192.208,93.56 193.02,93.308 C193.944,93.028 194.672,92.832 195.288,92.692 L195.288,97.144 Z M202.792,87.652 L202.792,88.268 L204.948,88.184 C205.508,88.156 205.844,88.268 205.844,88.688 C205.844,88.828 205.788,88.996 205.676,89.248 L201.868,98.712 C201.644,99.272 201.42,99.244 201.084,99.244 L200.356,99.272 L200.132,99.748 L201.868,104.732 L202.4,104.732 L202.232,100.588 C202.204,99.916 202.26,99.86 204.472,99.86 L206.124,99.86 C210.408,99.86 211.024,99.916 211.472,100.028 C212.004,100.168 211.976,100.336 211.92,101.148 L211.668,104.592 L212.2,104.592 L213.824,99.832 L213.628,99.3 L212.62,99.3 C212.284,99.3 212.116,99.216 211.948,98.656 L208.868,88.716 C208.644,88.016 208.168,87.288 206.712,87.288 C205.844,87.288 205.06,87.456 203.772,87.568 L202.792,87.652 Z M206.46,89.136 L206.852,89.22 L209.848,98.936 L209.68,99.3 C208.868,99.272 207.608,99.244 206.236,99.244 C204.752,99.244 203.576,99.272 202.624,99.3 L202.484,99.048 L206.46,89.136 Z M222.392,92.076 C222.224,92.132 222.056,92.16 221.888,92.216 C221.244,92.384 220.572,92.524 219.928,92.72 C219.088,92.972 216.764,93.672 215.728,94.512 C214.748,95.324 214.468,96.192 214.468,97.06 C214.468,99.104 215.868,100.28 217.884,100.28 C218.836,100.28 219.536,100.084 220.516,99.44 C221.076,99.076 221.748,98.544 222.196,98.152 L222.392,98.208 C222.392,99.44 223.372,100.28 224.576,100.28 C225.5,100.28 226.172,99.86 226.788,99.02 L226.452,98.656 C226.172,99.048 225.668,99.44 225.22,99.44 C224.856,99.44 224.464,99.272 224.464,98.404 L224.464,90.788 C224.464,89.976 224.296,88.744 222.532,87.876 C221.412,87.316 220.628,87.288 219.732,87.288 C218.892,87.288 218.024,87.316 217.016,87.792 C216.008,88.268 215.028,89.164 215.028,90.06 C215.028,90.592 215.504,90.788 215.868,90.788 C216.204,90.788 216.624,90.704 216.96,90.284 C217.632,89.5 217.24,88.996 218.024,88.38 C218.528,87.988 219.144,87.904 219.704,87.904 C220.292,87.904 220.964,87.96 221.58,88.436 C222.308,88.996 222.392,89.752 222.392,90.732 L222.392,92.076 Z M222.392,97.144 C221.86,97.648 221.216,98.18 220.628,98.544 C220.04,98.908 219.452,99.188 218.724,99.188 C217.8,99.188 217.296,98.796 217.016,98.432 C216.652,97.928 216.596,97.284 216.596,96.92 C216.596,96.08 216.792,95.408 217.352,94.792 C218.108,93.952 219.312,93.56 220.124,93.308 C221.048,93.028 221.776,92.832 222.392,92.692 L222.392,97.144 Z M229.812,87.596 L229.812,88.212 L231.436,88.1 C232.752,88.016 232.724,88.604 232.612,89.052 C232.528,89.444 232.304,90.256 231.52,92.636 C230.652,95.268 230.316,96.192 229.98,96.92 C229.84,97.2 229.672,97.536 229.336,97.76 C228.888,98.04 228.608,97.9 227.88,98.208 C227.488,98.376 226.956,98.74 226.956,99.384 C226.956,99.972 227.348,100.28 228.02,100.28 C228.664,100.28 229.14,100 229.56,99.468 C230.064,98.824 230.512,97.788 231.8,93.84 C232.5,91.768 232.668,91.068 233.424,88.632 L233.62,88.604 C233.9,88.632 233.984,88.828 234.152,89.416 C234.432,90.424 234.712,91.46 235.02,92.496 C235.244,93.28 235.496,94.092 235.72,94.876 C236.308,96.892 236.42,97.396 236.7,98.488 C236.728,98.6 236.924,99.356 236.252,99.356 L234.908,99.384 L234.908,100 C235.86,99.916 236.812,99.86 237.736,99.86 C238.744,99.86 239.724,99.916 240.676,100 L240.676,99.384 L239.78,99.3 C239.416,99.272 239.052,99.132 238.884,98.544 L235.944,88.66 C235.636,87.652 234.88,87.288 233.732,87.288 C233.172,87.288 232.696,87.4 231.744,87.456 L229.812,87.596 Z M252.66,98.516 C252.66,98.908 252.604,99.244 251.876,99.3 L250.7,99.384 L250.7,100 C251.68,99.944 252.688,99.888 253.696,99.888 C254.704,99.888 255.684,99.944 256.692,100 L256.692,99.384 L255.516,99.3 C254.788,99.244 254.732,98.908 254.732,98.516 L254.732,89.052 C254.732,88.66 254.788,88.324 255.516,88.268 L256.692,88.184 L256.692,87.568 C255.684,87.652 254.704,87.68 253.696,87.68 C252.688,87.68 251.68,87.652 250.7,87.568 L250.7,88.184 L251.876,88.268 C252.016,88.268 252.716,88.324 252.66,88.856 L245.548,97.368 L245.548,89.052 C245.548,88.66 245.604,88.324 246.332,88.268 L247.508,88.184 L247.508,87.568 C246.5,87.652 245.52,87.68 244.512,87.68 C243.504,87.68 242.496,87.652 241.516,87.568 L241.516,88.184 L242.692,88.268 C243.42,88.324 243.476,88.66 243.476,89.052 L243.476,98.516 C243.476,98.908 243.42,99.244 242.692,99.3 L241.516,99.384 L241.516,100 C242.496,99.944 243.504,99.888 244.512,99.888 C245.52,99.888 246.5,99.944 247.508,100 L247.508,99.384 L246.332,99.3 C246.08,99.272 245.408,99.188 245.548,98.432 L252.66,90.06 L252.66,98.516 Z" id="Вы-не-угадали" fill="#000000" sketch:type="MSShapeGroup"></path>
            </g>
        </g>
    </g>
</svg>